<svg xmlns="http://www.w3.org/2000/svg" viewBox="0 0 133.4 133.4" width="133.4" height="133.4">
  <g fill="#FF5117" transform="translate(-30.1,-83.3)">
    <polygon points="114.6,107 96.8,130.7 79,107 96.8,83.3"/>
    <polygon points="139.8,132.2 110.4,136.4 114.6,107 143.9,102.8"/>
    <polygon points="139.8,167.8 116.1,150 139.8,132.2 163.5,150"/>
    <polygon points="114.6,193 110.4,163.6 139.8,167.8 143.9,197.2"/>
    <polygon points="79,193 96.8,169.3 114.6,193 96.8,216.7"/>
    <polygon points="53.8,167.8 83.1,163.6 79,193 49.6,197.2"/>
    <polygon points="53.8,132.2 77.5,150 53.8,167.8 30.1,150"/>
    <polygon points="79,107 83.1,136.4 53.8,132.2 49.6,102.8"/>
  </g>
</svg>
